<?xml version="1.0" encoding="utf-8"?>
<!-- Generator: Adobe Illustrator 25.4.1, SVG Export Plug-In . SVG Version: 6.00 Build 0)  -->
<svg version="1.1" id="Layer_1" xmlns="http://www.w3.org/2000/svg" xmlns:xlink="http://www.w3.org/1999/xlink" x="0px" y="0px"
	 viewBox="0 0 362.5 133.2" style="enable-background:new 0 0 362.5 133.2;" xml:space="preserve">
<style type="text/css">
	
		.st0{clip-path:url(#SVGID_00000035525276278245421390000011092069107020541361_);fill-rule:evenodd;clip-rule:evenodd;fill:#FFFFFF;}
	.st1{clip-path:url(#SVGID_00000035525276278245421390000011092069107020541361_);}
	.st2{clip-path:url(#SVGID_00000082336785928872038840000006280265955396783522_);}
	.st3{clip-path:url(#SVGID_00000172403160537115954180000007621556307137727416_);}
	
		.st4{clip-path:url(#SVGID_00000082336785928872038840000006280265955396783522_);fill-rule:evenodd;clip-rule:evenodd;fill:#DADACA;}
	.st5{clip-path:url(#SVGID_00000034787958658849703450000010529366227937760922_);}
	.st6{clip-path:url(#SVGID_00000078756902658641218890000008705101340342413990_);}
	.st7{clip-path:url(#SVGID_00000003063976194789693580000003208409186607758266_);}
	
		.st8{clip-path:url(#SVGID_00000082336785928872038840000006280265955396783522_);fill:none;stroke:#FFCB05;stroke-width:2.9999;stroke-miterlimit:2.6131;}
	.st9{clip-path:url(#SVGID_00000082336785928872038840000006280265955396783522_);fill:#000001;}
	.st10{clip-path:url(#SVGID_00000082336785928872038840000006280265955396783522_);fill:#F47C20;}
	.st11{clip-path:url(#SVGID_00000082336785928872038840000006280265955396783522_);fill:#F57F20;}
	.st12{clip-path:url(#SVGID_00000117667246484800024330000017828459308576972719_);}
	.st13{clip-path:url(#SVGID_00000146481474009436369840000014313592868418465955_);}
	.st14{clip-path:url(#SVGID_00000020381565626859359210000011662133897750183357_);}
	.st15{clip-path:url(#SVGID_00000078733543643734203110000006962231557678177664_);}
	.st16{clip-path:url(#SVGID_00000022524477378411083310000006910734455434533036_);}
	.st17{clip-path:url(#SVGID_00000020381565626859359210000011662133897750183357_);fill:#000001;}
	.st18{clip-path:url(#SVGID_00000020381565626859359210000011662133897750183357_);fill:#F47C20;}
	.st19{clip-path:url(#SVGID_00000052081660359860853300000006778568170634705335_);}
	.st20{fill-rule:evenodd;clip-rule:evenodd;fill:#DADACA;}
	.st21{clip-path:url(#SVGID_00000020393514754179001460000009641966319107446957_);}
	.st22{clip-path:url(#SVGID_00000062185560182290061760000004067769866954296493_);}
	.st23{clip-path:url(#SVGID_00000171718354211749943250000014164368280960886202_);}
	.st24{clip-path:url(#SVGID_00000154384073112990485800000002430780088803946646_);}
	.st25{clip-path:url(#SVGID_00000181085216950333363940000003718923108745669567_);}
	.st26{fill:#000001;}
	.st27{fill:#F47C20;}
	.st28{clip-path:url(#SVGID_00000132073845303454387700000015213176794143862946_);}
	.st29{clip-path:url(#SVGID_00000176023801684267143590000008670882015244567995_);}
	.st30{fill-rule:evenodd;clip-rule:evenodd;fill:#FFFFFF;}
	.st31{fill:none;stroke:#000001;stroke-width:1.0001;stroke-miterlimit:2.6131;}
	.st32{clip-path:url(#SVGID_00000047048253830069479360000001636871678556215481_);}
	.st33{fill-rule:evenodd;clip-rule:evenodd;fill:#525355;}
	.st34{fill:none;stroke:#525355;stroke-width:0.4181;stroke-miterlimit:2.6131;}
	.st35{fill:none;stroke:#515254;stroke-width:0.4193;stroke-miterlimit:2.6131;}
	.st36{fill:none;stroke:#515254;stroke-width:0.4162;stroke-miterlimit:2.6131;}
	.st37{fill:none;stroke:#525355;stroke-width:0.4186;stroke-miterlimit:2.6131;}
	.st38{fill:none;stroke:#000001;stroke-width:1.5001;stroke-miterlimit:2.6131;}
	.st39{fill:none;}
	
		.st40{clip-path:url(#SVGID_00000103954146610292824950000016705728909452317836_);fill-rule:evenodd;clip-rule:evenodd;fill:#DADACA;}
	.st41{clip-path:url(#SVGID_00000103954146610292824950000016705728909452317836_);}
	.st42{clip-path:url(#SVGID_00000027575786250918144830000008949119192896981140_);}
	.st43{clip-path:url(#SVGID_00000015342187181546295560000000033075326717586053_);}
	.st44{clip-path:url(#SVGID_00000008140965125780565950000001956518522678708394_);}
	.st45{clip-path:url(#SVGID_00000166672046508935518650000016532823325364116157_);}
	.st46{clip-path:url(#SVGID_00000054244929630329979560000004350767460201153947_);}
	.st47{clip-path:url(#SVGID_00000103954146610292824950000016705728909452317836_);fill:#000001;}
	.st48{clip-path:url(#SVGID_00000103954146610292824950000016705728909452317836_);fill:#F47C20;}
	.st49{clip-path:url(#SVGID_00000077295631642120358480000017601264063861809579_);}
	
		.st50{clip-path:url(#SVGID_00000103954146610292824950000016705728909452317836_);fill:none;stroke:#000001;stroke-width:1.0001;stroke-miterlimit:2.6131;}
	
		.st51{clip-path:url(#SVGID_00000103954146610292824950000016705728909452317836_);fill:none;stroke:#000001;stroke-width:1.5001;stroke-miterlimit:2.6131;}
	
		.st52{clip-path:url(#SVGID_00000103954146610292824950000016705728909452317836_);fill-rule:evenodd;clip-rule:evenodd;fill:#FFFFFF;}
	.st53{clip-path:url(#SVGID_00000062165009209001479970000017642008618934485632_);}
	
		.st54{clip-path:url(#SVGID_00000103954146610292824950000016705728909452317836_);fill-rule:evenodd;clip-rule:evenodd;fill:#525355;}
	
		.st55{clip-path:url(#SVGID_00000103954146610292824950000016705728909452317836_);fill:none;stroke:#525355;stroke-width:1.0001;stroke-miterlimit:2.6131;}
	
		.st56{clip-path:url(#SVGID_00000124143631894484665400000007900905554619242124_);fill-rule:evenodd;clip-rule:evenodd;fill:#DADACA;}
	.st57{clip-path:url(#SVGID_00000124143631894484665400000007900905554619242124_);}
	.st58{clip-path:url(#SVGID_00000040563317616260704440000014222889847756882315_);}
	.st59{clip-path:url(#SVGID_00000093173783814600783190000003732168558223386794_);}
	.st60{clip-path:url(#SVGID_00000078746911128859463370000016041160150933950138_);}
	.st61{clip-path:url(#SVGID_00000045594480235212301640000008780050770635498161_);}
	.st62{clip-path:url(#SVGID_00000121971534355187062690000013099885449723286401_);}
	.st63{clip-path:url(#SVGID_00000124143631894484665400000007900905554619242124_);fill:#000001;}
	.st64{clip-path:url(#SVGID_00000124143631894484665400000007900905554619242124_);fill:#F47C20;}
	.st65{clip-path:url(#SVGID_00000006690440400910572860000002061597483914202782_);}
	
		.st66{clip-path:url(#SVGID_00000124143631894484665400000007900905554619242124_);fill-rule:evenodd;clip-rule:evenodd;fill:#FFFFFF;}
	
		.st67{clip-path:url(#SVGID_00000124143631894484665400000007900905554619242124_);fill:none;stroke:#000001;stroke-width:1.0001;stroke-miterlimit:2.6131;}
	
		.st68{clip-path:url(#SVGID_00000124143631894484665400000007900905554619242124_);fill:none;stroke:#000001;stroke-width:1.5001;stroke-miterlimit:2.6131;}
	.st69{clip-path:url(#SVGID_00000039106250964356445640000015083786887625926022_);}
	
		.st70{clip-path:url(#SVGID_00000124143631894484665400000007900905554619242124_);fill:none;stroke:#525355;stroke-width:0.5;stroke-miterlimit:2.6131;}
	
		.st71{clip-path:url(#SVGID_00000039116944487750598160000013159084577076481201_);fill-rule:evenodd;clip-rule:evenodd;fill:#DADACA;}
	.st72{clip-path:url(#SVGID_00000039116944487750598160000013159084577076481201_);}
	.st73{clip-path:url(#SVGID_00000091006329630969591880000011277254658684036765_);}
	.st74{clip-path:url(#SVGID_00000140722834475429140920000007816257818656559494_);}
	.st75{clip-path:url(#SVGID_00000135654152823694272930000014946026153770235052_);}
	.st76{clip-path:url(#SVGID_00000072970478491828581270000014718251588485942150_);}
	.st77{clip-path:url(#SVGID_00000137812656214253756120000005687762385418138029_);}
	.st78{clip-path:url(#SVGID_00000039116944487750598160000013159084577076481201_);fill:#000001;}
	.st79{clip-path:url(#SVGID_00000039116944487750598160000013159084577076481201_);fill:#F47C20;}
	.st80{clip-path:url(#SVGID_00000045608889634380651220000004227217417910161551_);}
	
		.st81{clip-path:url(#SVGID_00000039116944487750598160000013159084577076481201_);fill:none;stroke:#000001;stroke-width:1.0001;stroke-miterlimit:2.6131;}
	
		.st82{clip-path:url(#SVGID_00000039116944487750598160000013159084577076481201_);fill:none;stroke:#000001;stroke-width:1.5001;stroke-miterlimit:2.6131;}
	
		.st83{clip-path:url(#SVGID_00000039116944487750598160000013159084577076481201_);fill-rule:evenodd;clip-rule:evenodd;fill:#FFFFFF;}
	.st84{clip-path:url(#SVGID_00000180324981836949496690000009845327363140056985_);}
	
		.st85{clip-path:url(#SVGID_00000039116944487750598160000013159084577076481201_);fill:none;stroke:#525355;stroke-width:0.5;stroke-miterlimit:2.6131;}
	
		.st86{clip-path:url(#SVGID_00000169550225264547016890000002586572167728452244_);fill-rule:evenodd;clip-rule:evenodd;fill:#DADACA;}
	.st87{clip-path:url(#SVGID_00000169550225264547016890000002586572167728452244_);}
	.st88{clip-path:url(#SVGID_00000121958110260968775730000009019777143263072918_);}
	.st89{clip-path:url(#SVGID_00000080196171311506766980000016211747313776226746_);}
	.st90{clip-path:url(#SVGID_00000137129523007728253900000000923592504035460744_);}
	.st91{clip-path:url(#SVGID_00000062874634943704485590000003362924614454654905_);}
	.st92{clip-path:url(#SVGID_00000161594218795635967310000010443965522222543744_);}
	.st93{clip-path:url(#SVGID_00000169550225264547016890000002586572167728452244_);fill:#000001;}
	.st94{clip-path:url(#SVGID_00000169550225264547016890000002586572167728452244_);fill:#F47C20;}
	.st95{clip-path:url(#SVGID_00000137814662918860721620000005444888170561641909_);}
	.st96{clip-path:url(#SVGID_00000169550225264547016890000002586572167728452244_);fill-rule:evenodd;clip-rule:evenodd;}
	
		.st97{clip-path:url(#SVGID_00000038401317373858375800000010564293922066878378_);fill-rule:evenodd;clip-rule:evenodd;fill:#DADACA;}
	.st98{clip-path:url(#SVGID_00000038401317373858375800000010564293922066878378_);fill:#000001;}
	.st99{clip-path:url(#SVGID_00000038401317373858375800000010564293922066878378_);}
	.st100{clip-path:url(#SVGID_00000026151630110400509680000006341761901656309408_);}
	.st101{clip-path:url(#SVGID_00000036218622444184669620000003362840175249742497_);}
	.st102{clip-path:url(#SVGID_00000026151630110400509680000006341761901656309408_);fill:#000001;}
	.st103{clip-path:url(#SVGID_00000110439333437051918220000018394217768304190884_);}
	.st104{clip-path:url(#SVGID_00000070834988391485715980000000896725303427439261_);}
	.st105{clip-path:url(#SVGID_00000134211340321712917650000013298703951794489259_);}
	.st106{clip-path:url(#SVGID_00000135669338707249619820000013406689527180973708_);}
	.st107{clip-path:url(#SVGID_00000007422388387798348460000005172831195909678263_);}
	.st108{clip-path:url(#SVGID_00000057833290686280889930000017079987189623680687_);}
	.st109{clip-path:url(#SVGID_00000096052804440565484810000013152325856247326893_);}
	.st110{clip-path:url(#SVGID_00000041292830514702354300000011006502883138584209_);}
	.st111{clip-path:url(#SVGID_00000021813262393184001520000001309184741206909619_);}
	.st112{clip-path:url(#SVGID_00000000198837605476068550000014938153312872128952_);}
	.st113{clip-path:url(#SVGID_00000140000681991232728060000008921626538761049010_);}
	.st114{clip-path:url(#SVGID_00000150789058504659321330000000241368681215543690_);}
	.st115{clip-path:url(#SVGID_00000065774228848859974100000007967154574224654491_);}
	.st116{clip-path:url(#SVGID_00000102531195717500703590000012515013978655209114_);}
	.st117{clip-path:url(#SVGID_00000134957123870629953710000011755345994596445834_);}
	.st118{clip-path:url(#SVGID_00000146469208197200724530000013550448596126149566_);}
	
		.st119{clip-path:url(#SVGID_00000026151630110400509680000006341761901656309408_);fill:none;stroke:#000000;stroke-width:0.5;stroke-miterlimit:2.6131;}
	.st120{clip-path:url(#SVGID_00000026151630110400509680000006341761901656309408_);fill:#00AEEF;}
	.st121{clip-path:url(#SVGID_00000026151630110400509680000006341761901656309408_);fill:#ED1C24;}
	.st122{clip-path:url(#SVGID_00000026151630110400509680000006341761901656309408_);fill:#2E3192;}
	.st123{clip-path:url(#SVGID_00000032649598101525134080000006345577487009516934_);}
	.st124{clip-path:url(#SVGID_00000067927696686924843610000017199152397558696334_);}
	
		.st125{clip-path:url(#SVGID_00000038401317373858375800000010564293922066878378_);fill:none;stroke:#000001;stroke-width:1.0001;stroke-miterlimit:2.6131;}
	.st126{clip-path:url(#SVGID_00000093174542546076842870000016600233822109581212_);}
</style>
<g>
	<path class="st26" d="M235.3,10.8l-5.4,10.6l-0.9-0.5c0-0.2,0.1-0.4,0.1-0.5c0-0.7-0.7-1.6-2-2.4c-3.9-2.7-8.5-4.1-13.8-4.1
		c-2.3,0-4.4,0.3-6.2,0.9c-1.4,0.4-2.4,1.1-3.2,2c-0.8,0.9-1.2,1.8-1.2,2.9c0,1.7,1,2.8,3.1,3.5c1.1,0.3,3.4,0.6,6.8,1l5.2,0.5
		c3.1,0.3,5.6,0.7,7.5,1.4c2,0.5,3.6,1.4,5.1,2.4c1.5,1.1,2.7,2.5,3.6,4.3c0.9,1.8,1.3,3.7,1.3,5.7c0,3.2-1,6-3.1,8.5
		c-1.9,2.2-4.7,3.9-8.7,5c-2.9,0.8-6,1.2-9.4,1.2c-6,0-11.9-1.4-17.7-4.3c-1.2-0.6-2-0.9-2.2-0.9c-0.3,0-0.7,0.3-1.4,0.7l-0.9-0.5
		l4.9-11l1,0.5c0,0.2,0,0.3,0,0.4c0,1,0.5,1.9,1.4,2.8c1.5,1.2,3.7,2.4,6.7,3.3c3,0.9,5.8,1.4,8.5,1.4c2.9,0,5.4-0.5,7.5-1.5
		c1.2-0.5,2.1-1.3,2.8-2.2c0.7-0.9,1-1.8,1-2.8c0-1.5-0.8-2.6-2.4-3.2c-1.1-0.5-3.4-0.9-6.8-1.2l-5.2-0.5c-3.4-0.4-5.8-0.7-7.3-1
		c-1.4-0.3-2.8-0.9-4.2-1.6c-2-1-3.6-2.5-4.7-4.5c-1-1.8-1.6-3.9-1.6-6.2c0-3.9,1.3-7,3.9-9.5c3.5-3.3,8.6-4.9,15.5-4.9
		c2.9,0,5.6,0.3,8.1,0.9c2.5,0.6,5.6,1.6,9.4,3.3c1.3,0.5,2,0.7,2.4,0.7c0.5,0,0.9-0.3,1.6-0.7L235.3,10.8z M269.3,42.9h-17l-2,4
		c-0.5,1-0.7,1.8-0.7,2.3c0,1.1,0.7,1.8,2.1,2v0.9h-13.6v-0.9c0.8-0.1,1.5-0.4,1.9-0.7c0.4-0.4,0.9-1.2,1.4-2.2L255,20.9
		c0.5-1,0.7-1.9,0.7-2.7c0-0.9-0.6-1.6-1.9-2.1v-0.9h14.4v0.9c-1.2,0.5-1.8,1.2-1.8,2.2c0,0.7,0.3,1.6,0.8,2.7l14,26.5
		c0.8,1.5,1.4,2.4,1.8,2.8c0.5,0.4,1.2,0.7,2,0.9v0.9h-15.1v-0.9c1.4-0.3,2.2-0.9,2.2-2c0-0.7-0.3-1.5-0.8-2.5L269.3,42.9z
		 M266.7,37.7l-6.1-11.9l-5.8,11.9H266.7z M299.3,18.5v30.2c0,0.7,0.1,1.2,0.5,1.6c0.3,0.3,0.8,0.6,1.6,0.9v0.9h-13.1v-0.9
		c0.7-0.2,1.3-0.5,1.6-0.9c0.3-0.3,0.5-0.9,0.5-1.6V18.5c0-0.7-0.1-1.2-0.5-1.6c-0.3-0.3-0.8-0.7-1.6-0.9v-0.9h13.1v0.9
		c-0.8,0.2-1.4,0.5-1.6,0.9C299.4,17.3,299.3,17.8,299.3,18.5z"/>
	<path class="st26" d="M178.2,116h-20.4l-3.1,6.4c-0.4,0.9-0.6,1.6-0.6,2.1c0,0.9,0.7,1.6,2.2,2v1.1h-15v-1.1c0.9-0.2,1.6-0.5,2-0.9
		c0.5-0.4,1-1.3,1.6-2.6l16.6-34.7c0.5-1.1,0.8-2,0.8-2.6c0-1-0.6-1.8-1.9-2.2v-1.1h16v1.1c-1.3,0.3-2,1-2,2c0,0.6,0.2,1.4,0.6,2.2
		l17.2,34.8c0.7,1.5,1.4,2.5,1.9,3.1c0.6,0.5,1.3,0.9,2.2,1.1v1.1h-16.7v-1.1c1.5-0.3,2.2-0.9,2.2-2c0-0.5-0.2-1.2-0.7-2.1
		L178.2,116z M175.3,109.9l-7.3-16l-7.4,16H175.3z M215.9,110.8l-5.3,4.3v9.2c0,0.7,0.1,1.2,0.5,1.6c0.3,0.3,0.8,0.6,1.6,0.9v0.9
		h-13.1v-0.9c0.7-0.2,1.3-0.5,1.6-0.9c0.3-0.3,0.5-0.9,0.5-1.6V94c0-0.7-0.1-1.2-0.5-1.6c-0.3-0.3-0.8-0.7-1.6-0.9v-0.9h13.1v0.9
		c-0.8,0.2-1.4,0.5-1.6,0.9c-0.3,0.3-0.5,0.9-0.5,1.6v12l14-11c1-0.8,1.6-1.5,1.6-2.2c0-0.6-0.7-1.1-2-1.3v-0.9h16.7v0.9
		c-0.8,0.1-1.6,0.4-2.1,0.7c-0.5,0.4-2,1.5-4.2,3.5l-12.4,10l13.7,15.7c1.8,2,3.1,3.3,3.8,4c0.7,0.6,1.6,1,2.6,1.2v0.9H226v-0.9
		c1.2-0.3,1.8-0.7,1.8-1.3c0-0.3-0.1-0.5-0.2-0.7c-0.1-0.2-0.7-0.8-1.6-1.8L215.9,110.8z"/>
	<path class="st26" d="M281,93.9l-4.5,8.7l-0.8-0.5c0-0.7-0.2-1.3-0.7-1.7c-1.2-1.2-3.1-2-5.6-2.8c-2.4-0.7-4.9-1.1-7.5-1.1
		c-2.2,0-4.1,0.3-5.7,0.9c-2.4,0.9-3.6,2.1-3.6,3.7c0,1.1,0.6,1.9,1.7,2.3c1.2,0.5,3.4,0.8,6.7,1.1l5.2,0.4
		c4.5,0.3,8.1,1.2,10.4,2.6c1.3,0.8,2.4,1.9,3.3,3.2c1.1,1.6,1.6,3.5,1.6,5.6c0,3.7-1.7,6.7-5.1,8.9c-3.3,2-7.7,3.1-13.2,3.1
		c-5.6,0-11-1.2-16.1-3.5c-0.4-0.2-0.7-0.3-0.9-0.3c-0.4,0-0.8,0.3-1.2,0.8l-0.8-0.3l3.8-9.1l0.8,0.3c0,0.1,0,0.3,0,0.3
		c0,0.6,0.3,1.1,0.7,1.5c1.2,0.9,3.1,1.8,5.8,2.5s5.4,1.1,8,1.1c2.4,0,4.5-0.3,6.3-0.9c2.3-0.7,3.5-2,3.5-3.7c0-1.4-0.8-2.2-2.4-2.8
		c-1.1-0.3-3-0.7-5.8-0.9l-5.2-0.5c-2.8-0.2-4.9-0.5-6.4-0.9c-1.5-0.3-2.8-0.8-3.9-1.5c-1.4-0.9-2.6-2.1-3.3-3.7
		c-0.8-1.5-1.2-3.2-1.2-5c0-4.1,1.8-7.1,5.2-9.3c3.2-2,7.1-2.9,11.8-2.9c2.6,0,4.9,0.3,7.1,0.8c2.2,0.6,4.8,1.6,7.9,3
		c0.9,0.4,1.6,0.7,1.9,0.7c0.4,0,0.8-0.3,1.4-0.7L281,93.9z M318.9,111.5h-20.7v12.7c0,0.7,0.1,1.2,0.5,1.6c0.3,0.3,0.8,0.6,1.6,0.9
		v0.9h-13.1v-0.9c0.7-0.2,1.3-0.5,1.6-0.9c0.3-0.3,0.5-0.9,0.5-1.6V94c0-0.7-0.1-1.2-0.5-1.6c-0.3-0.3-0.8-0.7-1.6-0.9v-0.9h13.1
		v0.9c-0.8,0.2-1.4,0.5-1.6,0.9c-0.3,0.3-0.5,0.9-0.5,1.6v10.8h20.7V94c0-0.7-0.1-1.2-0.4-1.6c-0.3-0.3-0.9-0.7-1.7-0.9v-0.9h13.1
		v0.9c-0.8,0.2-1.4,0.5-1.6,0.9c-0.3,0.3-0.5,0.9-0.5,1.6v30.2c0,0.7,0.1,1.2,0.5,1.6c0.3,0.3,0.8,0.6,1.6,0.9v0.9h-13.1v-0.9
		c0.7-0.2,1.3-0.5,1.6-0.9c0.3-0.3,0.5-0.9,0.5-1.6V111.5z M347.4,94v30.2c0,0.7,0.1,1.2,0.5,1.6c0.3,0.3,0.8,0.6,1.6,0.9v0.9h-13.1
		v-0.9c0.7-0.2,1.3-0.5,1.6-0.9c0.3-0.3,0.5-0.9,0.5-1.6V94c0-0.7-0.1-1.2-0.5-1.6c-0.3-0.3-0.8-0.7-1.6-0.9v-0.9h13.1v0.9
		c-0.8,0.2-1.4,0.5-1.6,0.9C347.5,92.7,347.4,93.3,347.4,94z"/>
	<path class="st27" d="M235.6,9.3l-5.2,10.4l-0.9-0.5c0-0.2,0.1-0.4,0.1-0.5c0-0.7-0.7-1.5-1.9-2.4c-3.8-2.6-8.3-4-13.5-4
		c-2.2,0-4.3,0.3-6,0.9c-1.3,0.4-2.3,1.1-3.1,1.9c-0.8,0.9-1.2,1.8-1.2,2.8c0,1.6,1,2.8,3,3.4c1.1,0.3,3.3,0.6,6.7,1l5.1,0.5
		c3,0.3,5.4,0.7,7.3,1.3c1.9,0.5,3.5,1.3,4.9,2.3c1.5,1.1,2.6,2.4,3.5,4.2c0.9,1.7,1.3,3.6,1.3,5.5c0,3.1-1,5.9-3,8.2
		c-1.8,2.2-4.6,3.8-8.4,4.9c-2.8,0.8-5.9,1.2-9.1,1.2c-5.8,0-11.5-1.4-17.2-4.2c-1.2-0.6-1.9-0.9-2.2-0.9c-0.3,0-0.7,0.3-1.3,0.7
		l-0.9-0.5l4.7-10.7l1,0.5c0,0.2,0,0.3,0,0.4c0,1,0.5,1.8,1.3,2.7c1.5,1.2,3.6,2.3,6.5,3.2c2.9,0.9,5.7,1.4,8.3,1.4
		c2.8,0,5.3-0.5,7.3-1.5c1.1-0.5,2-1.3,2.7-2.2c0.7-0.9,1-1.8,1-2.8c0-1.5-0.8-2.5-2.4-3.1c-1.1-0.5-3.3-0.9-6.6-1.2l-5-0.5
		c-3.3-0.4-5.7-0.7-7.1-1c-1.3-0.3-2.7-0.9-4.1-1.5c-2-1-3.5-2.4-4.6-4.4c-1-1.8-1.5-3.8-1.5-6c0-3.8,1.3-6.8,3.8-9.2
		c3.4-3.2,8.4-4.8,15.1-4.8c2.8,0,5.5,0.3,7.8,0.9c2.4,0.6,5.5,1.6,9.1,3.2c1.3,0.5,2,0.7,2.3,0.7c0.5,0,0.9-0.3,1.6-0.7L235.6,9.3z
		 M268.7,40.5h-16.6l-1.9,3.9c-0.5,1-0.7,1.7-0.7,2.2c0,1.1,0.7,1.7,2,2v0.9h-13.3v-0.9c0.8-0.1,1.5-0.4,1.8-0.7
		c0.4-0.4,0.9-1.1,1.4-2.2l13.2-26.6c0.5-1,0.7-1.8,0.7-2.6c0-0.9-0.6-1.6-1.8-2v-0.9h14v0.9c-1.2,0.5-1.8,1.2-1.8,2.2
		c0,0.7,0.3,1.6,0.8,2.6L280.4,45c0.8,1.5,1.4,2.3,1.8,2.8c0.5,0.4,1.1,0.7,2,0.9v0.9h-14.7v-0.9c1.4-0.3,2.1-0.9,2.1-2
		c0-0.7-0.3-1.5-0.8-2.4L268.7,40.5z M266.1,35.4l-5.9-11.6l-5.6,11.6H266.1z M297.9,16.8v29.4c0,0.7,0.1,1.2,0.5,1.6
		c0.3,0.3,0.8,0.6,1.6,0.9v0.9h-12.7v-0.9c0.7-0.2,1.3-0.5,1.6-0.9c0.3-0.3,0.5-0.9,0.5-1.5V16.8c0-0.7-0.1-1.2-0.5-1.5
		c-0.3-0.3-0.8-0.7-1.6-0.9v-0.9h12.7v0.9c-0.8,0.2-1.3,0.5-1.6,0.9C298,15.6,297.9,16.1,297.9,16.8z"/>
	<path class="st27" d="M180,111.7h-19.8l-3,6.2c-0.4,0.9-0.6,1.5-0.6,2c0,0.9,0.7,1.6,2.2,2v1.1h-14.6v-1.1c0.9-0.2,1.5-0.5,2-0.9
		c0.5-0.4,1-1.3,1.5-2.5l16.2-33.8c0.5-1.1,0.8-1.9,0.8-2.6c0-1-0.6-1.7-1.8-2.1V79h15.6V80c-1.3,0.3-1.9,1-1.9,1.9
		c0,0.6,0.2,1.3,0.6,2.1l16.7,33.8c0.7,1.5,1.3,2.4,1.8,3c0.6,0.5,1.3,0.9,2.2,1.1v1.1h-16.2v-1.1c1.5-0.3,2.1-0.9,2.1-2
		c0-0.5-0.2-1.2-0.7-2L180,111.7z M177.2,105.7l-7.1-15.6l-7.2,15.6H177.2z M216.7,106.5l-5.1,4.2v8.9c0,0.7,0.1,1.2,0.5,1.6
		c0.3,0.3,0.8,0.6,1.6,0.9v0.9h-12.7V122c0.7-0.2,1.3-0.5,1.6-0.9c0.3-0.3,0.5-0.9,0.5-1.5V90.2c0-0.7-0.1-1.2-0.5-1.5
		c-0.3-0.3-0.8-0.7-1.6-0.9v-0.9h12.7v0.9c-0.8,0.2-1.3,0.5-1.6,0.9c-0.3,0.3-0.5,0.9-0.5,1.5v11.7l13.6-10.7c1-0.8,1.5-1.5,1.5-2.1
		c0-0.6-0.7-1.1-1.9-1.3v-0.9H241v0.9c-0.8,0.1-1.5,0.4-2,0.7c-0.5,0.4-1.9,1.5-4.1,3.4l-12.1,9.8l13.3,15.3c1.7,2,3,3.2,3.7,3.9
		c0.7,0.6,1.6,1,2.6,1.2v0.9h-15.8V122c1.2-0.3,1.8-0.7,1.8-1.3c0-0.3-0.1-0.5-0.2-0.7c-0.1-0.2-0.7-0.8-1.5-1.8L216.7,106.5z"/>
	<path class="st27" d="M280.1,90.1l-4.4,8.4l-0.8-0.5c0-0.7-0.2-1.3-0.7-1.6c-1.2-1.1-3-2-5.4-2.7c-2.4-0.7-4.8-1.1-7.3-1.1
		c-2.1,0-4,0.3-5.5,0.9c-2.3,0.9-3.5,2-3.5,3.6c0,1.1,0.6,1.8,1.6,2.2c1.1,0.5,3.3,0.8,6.5,1.1l5.1,0.4c4.4,0.3,7.8,1.2,10.2,2.6
		c1.3,0.8,2.3,1.8,3.2,3.1c1.1,1.6,1.6,3.4,1.6,5.5c0,3.6-1.6,6.5-4.9,8.7c-3.2,2-7.5,3-12.9,3s-10.7-1.1-15.7-3.4
		c-0.4-0.2-0.7-0.3-0.9-0.3c-0.4,0-0.8,0.3-1.2,0.8l-0.8-0.3l3.7-8.8l0.8,0.3c0,0.1,0,0.3,0,0.3c0,0.6,0.3,1.1,0.7,1.5
		c1.1,0.9,3,1.7,5.6,2.4c2.6,0.7,5.2,1.1,7.8,1.1c2.3,0,4.4-0.3,6.1-0.9c2.2-0.7,3.4-1.9,3.4-3.6c0-1.3-0.8-2.2-2.3-2.7
		c-1.1-0.3-2.9-0.7-5.6-0.9l-5-0.5c-2.8-0.2-4.8-0.5-6.3-0.9c-1.5-0.3-2.7-0.8-3.8-1.5c-1.4-0.9-2.5-2-3.2-3.6
		c-0.8-1.5-1.2-3.1-1.2-4.9c0-4,1.7-6.9,5.1-9c3.1-1.9,6.9-2.8,11.5-2.8c2.5,0,4.8,0.3,6.9,0.8c2.2,0.6,4.7,1.5,7.6,2.9
		c0.9,0.4,1.5,0.7,1.8,0.7c0.4,0,0.8-0.3,1.3-0.7L280.1,90.1z M316.9,107.3h-20.2v12.3c0,0.7,0.1,1.2,0.5,1.6
		c0.3,0.3,0.8,0.6,1.6,0.9v0.9h-12.7V122c0.7-0.2,1.3-0.5,1.6-0.9c0.3-0.3,0.5-0.9,0.5-1.5V90.2c0-0.7-0.1-1.2-0.5-1.5
		c-0.3-0.3-0.8-0.7-1.6-0.9v-0.9h12.7v0.9c-0.8,0.2-1.3,0.5-1.6,0.9c-0.3,0.3-0.5,0.9-0.5,1.5v10.6h20.2V90.2c0-0.7-0.1-1.2-0.4-1.5
		c-0.3-0.3-0.9-0.7-1.6-0.9v-0.9h12.7v0.9c-0.8,0.2-1.3,0.5-1.6,0.9c-0.3,0.3-0.5,0.9-0.5,1.5v29.4c0,0.7,0.1,1.2,0.5,1.6
		c0.3,0.3,0.8,0.6,1.6,0.9v0.9h-12.7V122c0.7-0.2,1.3-0.5,1.6-0.9c0.3-0.3,0.5-0.9,0.5-1.5V107.3z M344.6,90.2v29.4
		c0,0.7,0.1,1.2,0.5,1.6c0.3,0.3,0.8,0.6,1.6,0.9v0.9H334V122c0.7-0.2,1.3-0.5,1.6-0.9c0.3-0.3,0.5-0.9,0.5-1.5V90.2
		c0-0.7-0.1-1.2-0.5-1.5c-0.3-0.3-0.8-0.7-1.6-0.9v-0.9h12.7v0.9c-0.8,0.2-1.3,0.5-1.6,0.9C344.8,89,344.6,89.5,344.6,90.2z"/>
	<g>
		<defs>
			<rect id="SVGID_00000023985693250612144030000011934401193869953453_" x="13" y="6.4" width="117.2" height="117.5"/>
		</defs>
		<clipPath id="SVGID_00000109011988639840145870000018073980431782295712_">
			<use xlink:href="#SVGID_00000023985693250612144030000011934401193869953453_"  style="overflow:visible;"/>
		</clipPath>
		<g style="clip-path:url(#SVGID_00000109011988639840145870000018073980431782295712_);">
			<defs>
				<rect id="SVGID_00000109006172163764273730000007745790588948015289_" x="13" y="6.4" width="117.2" height="117.5"/>
			</defs>
			<clipPath id="SVGID_00000077287878323831353080000009715425150979313596_">
				<use xlink:href="#SVGID_00000109006172163764273730000007745790588948015289_"  style="overflow:visible;"/>
			</clipPath>
			<g transform="matrix(1 0 0 1 0 0)" style="clip-path:url(#SVGID_00000077287878323831353080000009715425150979313596_);">
				
					<image style="overflow:visible;" width="143" height="143" xlink:href="3DB2D7FE.jpg"  transform="matrix(0.8194 0 0 0.8217 13 6.3702)">
				</image>
			</g>
		</g>
	</g>
</g>
</svg>
