<?xml version="1.0" encoding="utf-8"?>
<!-- Generator: Adobe Illustrator 25.4.1, SVG Export Plug-In . SVG Version: 6.00 Build 0)  -->
<svg version="1.1" id="Layer_1" xmlns="http://www.w3.org/2000/svg" xmlns:xlink="http://www.w3.org/1999/xlink" x="0px" y="0px"
	 viewBox="0 0 182.16 99.51" style="enable-background:new 0 0 182.16 99.51;" xml:space="preserve">
<style type="text/css">
	.st0{fill:#f47c20;}
</style>
<path class="st0" d="M152.04,57.68c-2.97,0-4.73,0-6.5,0c-43.78,0-87.56,0-131.34,0c-1.62,0-3.28,0.15-4.85-0.13
	c-4.19-0.74-6.62-3.34-6.89-7.6c-0.26-3.98,2.82-7.45,6.99-8.01c1.6-0.21,3.24-0.11,4.86-0.11c43.78,0,87.56,0,131.34,0
	c1.75,0,3.49,0,6.62,0c-2.72-2.85-4.61-4.92-6.58-6.9c-6.29-6.32-12.64-12.58-18.91-18.92c-3.92-3.97-4.24-8.59-0.95-12.06
	c3.41-3.61,7.82-3.51,11.93,0.57c12.99,12.91,25.94,25.87,38.81,38.91c4.23,4.28,4.2,8.42-0.07,12.74
	c-12.88,13.03-25.83,25.99-38.82,38.9c-3.96,3.94-8.15,4.1-11.58,0.78c-3.48-3.36-3.41-8.2,0.39-12.07
	c7.27-7.4,14.65-14.7,21.96-22.06C149.45,60.71,150.33,59.61,152.04,57.68z"/>
</svg>
